{"glyphs":{":":{"x_min":0,"x_max":169,"ha":169,"o":"m 148 403 q 148 377 130 360 q 111 342 85 342 q 62 342 46 359 q 30 376 30 399 q 30 424 46 442 q 62 460 87 460 q 112 460 130 444 q 148 428 148 403 z m 148 180 q 148 155 134 136 q 119 117 95 115 q 70 115 50 130 q 30 145 30 168 q 28 193 43 212 q 58 231 83 233 q 109 233 128 218 q 146 204 148 180 z"},"$":{"x_min":0,"x_max":495,"ha":495,"o":"m 475 221 q 476 214 476 208 q 476 201 476 194 q 476 95 390 39 q 321 -6 235 -6 l 226 -5 l 219 -47 l 194 -47 l 202 -3 q 197 -3 187 0 q 177 3 172 3 l 164 -47 l 140 -47 l 150 10 q 93 31 30 113 l 107 158 q 122 130 131 118 q 140 107 161 92 l 164 89 l 192 256 q 125 291 92 321 q 42 365 28 426 q 23 448 23 466 q 23 546 90 607 q 157 668 248 668 l 263 668 l 270 703 l 295 703 l 288 667 l 315 664 l 322 703 l 345 703 l 337 658 q 364 649 386 634 q 401 624 424 603 q 432 597 439 587 q 451 570 463 553 l 392 508 q 383 528 367 546 q 348 567 324 577 l 294 399 q 393 347 410 333 q 468 288 475 221 z m 301 584 l 285 586 l 274 585 l 246 429 l 272 412 z m 248 581 q 220 572 206 554 q 193 535 193 511 q 193 481 210 461 l 224 446 z m 301 117 q 312 139 312 154 q 312 173 300 188 q 288 203 264 218 l 240 76 q 260 80 276 90 q 292 100 301 117 z m 241 230 l 214 245 l 186 78 q 200 73 202 73 q 208 73 214 73 z"},"?":{"x_min":0,"x_max":379,"ha":379,"o":"m 371 484 q 371 423 311 361 q 292 342 219 286 q 202 273 196 255 q 191 237 191 212 q 191 202 191 192 q 191 181 192 171 l 142 171 q 133 189 122 232 q 112 275 112 307 q 112 327 114 336 q 115 344 196 434 q 232 474 232 508 q 232 597 147 597 q 115 597 92 572 q 70 548 70 516 q 70 507 71 503 l 9 502 q 9 562 31 598 q 67 657 160 669 q 167 670 181 670 q 251 670 306 625 q 371 572 371 484 z m 235 71 q 235 42 213 20 q 191 -2 161 -2 q 131 -2 109 19 q 87 40 87 71 q 87 102 108 124 q 130 145 161 145 q 192 145 214 124 q 235 102 235 71 z"},"'":{"x_min":0,"x_max":182,"ha":182,"o":"m 129 656 q 146 649 154 634 q 161 620 161 600 q 161 573 149 542 q 137 511 119 487 l 28 358 l 28 497 q 28 554 48 603 q 72 661 108 661 q 119 661 129 656 z"},"a":{"x_min":0,"x_max":426,"ha":426,"o":"m 420 -1 l 269 -1 l 243 76 l 92 76 l 67 0 l 4 0 l 125 381 q 142 435 162 452 q 181 469 210 469 q 247 469 269 444 q 286 425 299 383 z m 236 134 l 174 345 l 109 134 z"},"L":{"x_min":0,"x_max":482,"ha":482,"o":"m 465 0 l 40 0 l 40 672 l 229 672 l 229 92 l 465 92 z"},"3":{"x_min":0,"x_max":517,"ha":517,"o":"m 498 672 l 347 445 q 411 435 423 429 q 449 416 473 366 q 480 352 480 336 q 480 317 470 297 q 466 289 427 232 l 271 0 l 40 -4 l 224 242 q 244 265 253 278 q 283 320 283 343 q 283 362 269 368 q 255 375 234 377 q 214 379 190 379 q 175 379 160 378 q 145 378 130 378 q 96 378 77 383 l 221 592 l 23 592 l 23 672 z"},";":{"x_min":0,"x_max":178,"ha":178,"o":"m 154 403 q 154 378 136 360 q 118 342 92 342 q 69 342 53 359 q 37 376 37 399 q 37 424 53 442 q 69 460 94 460 q 119 460 136 444 q 154 427 154 403 z m 127 156 q 144 149 152 134 q 159 120 159 100 q 159 73 147 42 q 135 11 117 -13 l 26 -142 l 26 -3 q 26 54 46 103 q 70 161 106 161 q 117 161 127 156 z"},"J":{"x_min":0,"x_max":394,"ha":394,"o":"m 353 193 q 347 153 341 126 q 328 74 300 51 q 264 22 202 8 q 151 -3 85 -3 q 46 -3 13 0 l 13 71 q 30 64 49 64 q 69 64 89 72 q 109 79 130 92 q 150 106 157 128 q 164 149 164 181 l 164 676 l 353 676 z"},"V":{"x_min":0,"x_max":576,"ha":576,"o":"m 570 672 l 288 -8 l 6 672 l 196 672 l 343 324 l 481 672 z"},"\"":{"x_min":0,"x_max":356,"ha":356,"o":"m 307 660 q 324 653 332 638 q 339 624 339 604 q 339 577 327 546 q 315 515 297 491 l 206 362 l 206 501 q 206 558 226 607 q 250 665 286 665 q 297 665 307 660 z m 132 660 q 149 653 156 638 q 164 624 164 604 q 164 577 152 546 q 140 515 122 491 l 31 362 l 31 501 q 31 558 51 607 q 75 665 111 665 q 122 665 132 660 z"},"7":{"x_min":0,"x_max":528,"ha":528,"o":"m 509 601 l 244 0 l 34 0 l 307 605 l 13 605 l 13 672 l 509 672 z"},"S":{"x_min":0,"x_max":500,"ha":500,"o":"m 477 214 q 477 109 397 47 q 326 -8 229 -8 q 153 -8 114 14 q 76 36 19 109 l 107 160 q 114 114 153 88 q 169 78 187 72 q 205 66 223 66 q 248 66 266 76 q 284 87 296 113 q 304 129 304 147 q 304 184 241 223 q 116 300 115 301 q 41 358 23 433 q 18 456 18 474 q 18 555 84 616 q 149 676 242 676 q 310 676 362 648 q 408 623 456 567 l 389 513 q 375 544 350 565 q 318 592 279 592 q 233 592 208 570 q 187 551 187 522 q 187 491 210 470 q 233 448 330 395 q 477 315 477 214 z"},"}":{"x_min":0,"x_max":264,"ha":264,"o":"m 250 339 l 210 300 l 210 115 q 210 94 210 84 q 210 61 205 46 q 200 30 185 19 q 155 -2 104 -2 q 82 -2 57 0 q 32 3 14 5 l 14 59 q 24 57 36 57 q 49 57 59 57 q 80 74 80 107 l 80 300 l 120 339 l 80 380 l 80 565 q 80 598 59 615 q 56 615 54 615 q 34 618 29 618 q 19 618 14 617 l 14 671 q 36 673 58 675 q 79 677 94 677 q 122 677 144 672 q 165 667 185 653 q 201 642 206 626 q 210 611 210 587 q 210 567 210 557 l 210 380 z"},"Z":{"x_min":0,"x_max":614,"ha":614,"o":"m 600 672 l 273 88 l 583 88 l 583 0 l 16 0 l 336 580 l 25 580 l 25 672 z"},"x":{"x_min":0,"x_max":434,"ha":434,"o":"m 433 -4 l 265 -4 l 181 130 l 89 -4 l 19 -5 l 151 189 l 0 463 l 168 465 l 247 313 l 355 465 l 421 465 l 277 265 z"},")":{"x_min":0,"x_max":208,"ha":208,"o":"m 187 328 q 187 225 165 163 q 140 92 62 -3 l 28 -1 q 62 89 76 160 q 91 232 91 324 q 91 434 80 504 q 68 574 32 672 l 61 676 q 130 596 158 516 q 187 435 187 328 z"},"&":{"x_min":0,"x_max":643,"ha":643,"o":"m 639 0 l 448 -3 l 426 42 q 387 6 346 -10 q 304 -25 248 -25 q 153 -25 83 37 q 13 99 13 189 q 13 259 68 316 q 93 342 182 403 q 145 468 109 534 q 147 604 200 640 q 253 677 305 677 q 361 677 400 640 q 421 620 432 597 q 442 574 442 549 q 442 514 422 478 q 402 443 371 418 l 497 225 q 527 276 527 329 q 527 345 523 351 q 519 357 519 395 l 571 400 q 571 375 576 344 q 580 312 580 303 q 580 282 576 266 q 573 250 562 222 q 551 194 534 166 z m 340 587 q 326 603 302 603 q 278 603 264 585 l 318 504 q 333 508 342 523 q 351 538 351 555 q 351 575 340 587 z m 382 99 l 237 315 q 211 296 198 270 q 184 243 184 211 q 184 177 202 146 q 220 114 250 97 q 280 80 316 80 q 349 80 382 99 z"},"_":{"x_min":0,"x_max":459,"ha":459,"o":"m 464 -271 l -7 -271 l -7 -215 l 464 -215 z"},"v":{"x_min":0,"x_max":428,"ha":428,"o":"m 425 466 l 337 104 q 321 38 292 16 q 278 6 235 -3 q 231 -4 224 -4 q 193 -4 162 22 q 130 47 120 79 l 2 466 l 153 466 l 269 95 l 355 466 z"},"O":{"x_min":0,"x_max":758,"ha":758,"o":"m 733 340 q 733 198 631 99 q 529 0 385 0 q 238 0 130 97 q 23 194 23 336 q 23 479 124 580 q 225 681 368 681 q 524 681 628 584 q 733 486 733 340 z m 536 352 q 536 453 500 522 q 457 605 376 605 q 295 605 254 520 q 220 450 220 345 q 220 236 258 159 q 303 67 385 67 q 469 67 507 162 q 536 235 536 352 z"},"(":{"x_min":0,"x_max":224,"ha":224,"o":"m 202 -1 l 172 -3 q 94 92 68 160 q 42 229 42 328 q 42 435 70 515 q 99 595 168 676 l 197 672 q 164 582 152 504 q 139 427 139 324 q 139 228 152 160 q 166 92 202 -1 z"},"C":{"x_min":0,"x_max":686,"ha":686,"o":"m 668 160 q 569 -12 375 -12 q 231 -12 128 85 q 24 182 24 324 q 24 469 124 572 q 223 676 366 676 q 464 676 536 640 q 607 604 661 525 l 577 473 q 537 542 509 565 q 466 601 391 601 q 312 601 264 520 q 220 446 220 341 q 220 236 263 161 q 311 76 395 67 q 402 66 414 66 q 476 66 531 114 q 566 144 601 199 z"},"W":{"x_min":0,"x_max":872,"ha":872,"o":"m 865 676 l 579 -8 l 432 324 l 285 0 l 4 672 l 201 672 l 352 319 l 399 416 l 294 672 l 487 672 l 638 319 l 773 676 z"},"A":{"x_min":0,"x_max":684,"ha":684,"o":"m 678 0 l 470 0 l 403 199 l 164 199 l 99 -2 l 0 0 l 244 672 l 434 672 z m 370 281 l 281 517 l 195 281 z"},"f":{"x_min":0,"x_max":292,"ha":292,"o":"m 297 626 q 295 623 273 623 q 258 623 250 623 q 218 623 206 620 q 193 616 186 607 q 173 590 173 562 l 172 412 l 285 412 l 285 363 l 172 361 l 174 -3 l 38 0 l 37 572 q 37 613 86 660 q 97 670 122 674 q 146 677 186 677 q 213 677 234 676 q 255 676 270 676 q 290 676 297 677 z"},"Q":{"x_min":0,"x_max":778,"ha":778,"o":"m 753 338 q 753 208 678 113 q 604 18 478 -8 l 478 -84 l 314 -84 l 314 -13 q 185 7 104 98 q 23 190 23 318 q 23 465 126 570 q 230 676 377 676 q 528 676 640 578 q 753 480 753 338 z m 554 328 q 554 437 517 511 q 472 601 386 601 q 303 601 259 516 q 222 444 222 340 q 222 251 240 192 q 259 134 314 76 l 314 143 l 470 143 l 470 71 q 518 119 538 187 q 554 243 554 328 z"},"w":{"x_min":0,"x_max":725,"ha":725,"o":"m 722 464 l 643 168 q 616 64 609 50 q 581 -8 521 -8 q 479 -8 444 44 q 433 61 417 96 l 359 253 l 321 124 q 300 54 288 34 q 262 -7 209 -7 q 152 -7 116 62 q 100 92 84 155 l 0 465 l 147 463 l 256 106 l 328 374 l 294 463 l 454 465 l 560 100 l 652 465 z"},"-":{"x_min":0,"x_max":397,"ha":397,"o":"m 383 313 l 20 313 l 20 413 l 383 413 z"},"E":{"x_min":0,"x_max":494,"ha":494,"o":"m 476 -2 l 39 -2 l 39 674 l 464 674 l 464 586 l 233 586 l 233 389 l 460 389 l 460 305 l 228 305 l 228 82 l 476 82 z"},"s":{"x_min":0,"x_max":440,"ha":440,"o":"m 425 178 q 426 172 426 160 q 426 95 372 48 q 317 0 247 0 q 221 0 206 -1 q 131 -6 120 -6 q 103 -6 87 -6 q 63 -3 51 -2 l 51 59 q 72 57 100 55 q 128 53 149 53 q 201 53 234 63 q 266 73 273 99 q 275 105 275 109 q 275 116 275 119 q 275 158 206 178 q 44 225 27 282 q 22 297 22 319 q 22 372 60 413 q 97 454 141 460 q 185 465 226 467 q 267 469 300 469 q 347 469 368 466 l 369 408 q 357 409 336 410 q 314 411 304 411 q 254 411 218 400 q 182 390 182 363 q 182 360 184 350 q 193 320 304 292 q 415 264 425 178 z"},"l":{"x_min":0,"x_max":283,"ha":283,"o":"m 286 1 q 264 -1 235 -3 q 206 -5 183 -5 q 143 -5 116 0 q 90 4 72 16 q 55 28 50 44 q 46 59 46 83 q 46 103 46 113 l 46 673 l 176 673 l 176 105 q 176 72 197 55 q 210 55 224 54 q 237 54 257 54 q 280 54 286 55 z"},"8":{"x_min":0,"x_max":531,"ha":531,"o":"m 503 150 q 478 77 405 37 q 338 0 248 0 q 158 0 92 51 q 21 106 21 189 q 21 250 55 294 q 89 338 148 357 q 107 389 85 424 q 63 460 63 501 q 63 527 73 553 q 94 609 157 642 q 220 676 304 676 q 385 676 441 633 q 502 586 502 506 q 502 459 477 426 q 457 400 407 366 q 455 341 482 309 q 516 269 516 218 q 516 186 503 150 z m 339 492 q 339 558 326 586 q 314 613 294 613 q 269 613 254 593 q 236 569 230 508 q 229 500 229 490 q 229 481 229 476 q 229 432 240 405 q 252 378 282 378 q 309 378 322 400 q 339 428 339 492 z m 333 192 q 333 248 326 273 q 314 315 282 315 q 241 315 220 280 q 200 244 200 197 q 200 141 209 114 q 223 71 261 71 q 298 71 317 111 q 333 144 333 192 z"},"\\":{"x_min":0,"x_max":409,"ha":409,"o":"m 398 671 l 65 -5 l 20 -5 l 352 676 z"},"e":{"x_min":0,"x_max":375,"ha":375,"o":"m 356 -2 q 321 -2 285 -2 q 249 -2 212 -3 q 140 -3 105 0 q 70 2 62 12 q 54 21 46 31 q 39 41 35 56 l 35 395 q 39 409 42 417 q 53 442 68 452 q 84 461 104 464 q 125 467 167 467 q 193 467 261 466 q 329 465 349 465 l 349 406 q 318 406 292 406 q 267 406 247 407 q 227 407 216 405 q 206 403 196 396 q 187 390 184 370 q 180 350 180 320 q 180 304 180 290 q 180 275 181 262 l 330 262 l 330 200 l 181 200 q 181 196 180 187 q 180 178 180 163 q 180 131 182 104 q 185 76 190 68 q 196 61 216 58 q 237 55 267 55 q 285 55 304 55 q 323 55 344 56 q 352 56 356 56 z"},"b":{"x_min":0,"x_max":481,"ha":481,"o":"m 465 199 q 465 110 402 53 q 344 0 262 0 l 40 0 l 40 674 l 170 674 l 170 413 q 187 420 217 420 q 304 420 375 371 q 465 309 465 199 z m 316 199 q 316 273 284 318 q 252 364 191 364 q 177 364 170 363 l 170 46 q 188 43 203 43 q 264 43 293 93 q 316 133 316 199 z"},"%":{"x_min":0,"x_max":975,"ha":975,"o":"m 950 255 q 956 232 956 210 q 956 126 883 65 q 810 4 710 4 q 633 4 576 56 q 520 107 513 185 q 512 191 512 202 q 512 285 578 344 q 643 403 731 403 q 812 403 872 366 q 931 328 950 255 z m 678 692 l 342 -18 l 300 -23 l 636 692 z m 461 510 q 462 503 463 496 q 463 489 463 482 q 463 401 390 341 q 318 281 228 281 q 216 281 210 282 q 137 282 80 337 q 23 392 23 468 q 23 555 91 616 q 159 676 252 676 q 332 676 390 631 q 448 586 461 510 z m 799 202 q 799 216 799 226 q 799 236 799 243 q 799 299 790 322 q 776 359 736 359 q 700 359 682 312 q 668 275 668 223 q 668 155 679 114 q 695 54 732 54 q 740 54 744 55 q 778 62 790 109 q 799 143 799 202 z m 311 461 q 311 537 302 572 q 287 630 244 630 q 192 630 183 552 q 180 526 180 471 q 180 407 190 374 q 205 324 244 324 q 275 324 291 351 q 311 385 311 461 z"},"m":{"x_min":0,"x_max":608,"ha":608,"o":"m 575 0 l 418 -1 l 417 348 l 271 0 l 115 340 l 115 0 l 40 0 l 39 396 q 39 429 70 448 q 100 467 138 467 q 147 466 151 466 q 215 461 252 387 q 289 313 313 261 q 346 351 367 394 q 406 471 477 471 q 520 471 546 450 q 573 429 573 393 z"},",":{"x_min":0,"x_max":176,"ha":176,"o":"m 129 133 q 146 126 154 112 q 161 97 161 77 q 161 49 150 19 q 138 -11 119 -37 l 27 -166 l 27 -27 q 27 32 47 80 q 71 138 108 138 q 117 138 129 133 z"},"n":{"x_min":0,"x_max":467,"ha":467,"o":"m 427 67 q 427 33 421 17 q 411 -9 385 -9 q 325 -9 248 104 q 180 205 112 306 l 112 -4 l 40 -4 l 40 391 q 40 419 60 445 q 81 471 111 471 q 176 471 234 391 q 292 311 351 227 l 351 466 l 427 466 z"},"h":{"x_min":0,"x_max":471,"ha":471,"o":"m 434 0 l 289 0 l 289 211 l 187 211 l 187 0 l 43 0 l 43 672 l 187 672 l 187 273 l 293 273 l 293 426 l 434 426 z"},"z":{"x_min":0,"x_max":440,"ha":440,"o":"m 427 61 l 425 0 l 16 0 l 208 408 l 13 408 l 13 465 l 185 465 q 300 465 332 462 q 364 460 372 449 q 380 438 380 421 q 380 396 361 356 q 346 328 340 315 q 314 259 292 214 q 263 156 211 56 z"},"B":{"x_min":0,"x_max":636,"ha":636,"o":"m 617 184 q 617 68 523 28 q 452 -2 264 -2 q 233 -2 158 -1 q 83 0 40 0 l 40 671 q 88 671 148 672 q 208 672 279 673 q 449 673 512 644 q 593 607 593 496 q 593 437 553 392 q 513 346 457 338 q 529 327 575 279 q 617 235 617 184 z m 400 483 q 400 538 362 570 q 325 601 274 601 q 266 601 256 600 q 245 598 230 594 l 230 387 q 256 378 284 378 q 332 378 364 404 q 400 433 400 483 z m 419 190 q 419 241 374 275 q 330 309 272 309 q 248 309 227 302 l 226 81 q 253 72 281 72 q 338 72 378 104 q 419 135 419 190 z"},"K":{"x_min":0,"x_max":648,"ha":648,"o":"m 645 0 l 448 0 l 251 324 l 452 672 l 545 672 l 393 424 z m 238 676 l 238 -2 l 40 -2 l 40 676 z"},"R":{"x_min":0,"x_max":664,"ha":664,"o":"m 643 473 q 643 381 564 324 q 538 305 484 284 l 639 -2 l 429 -2 l 257 338 q 279 333 298 333 q 357 333 399 366 q 446 403 446 464 q 446 535 390 569 q 345 596 275 596 q 266 596 257 596 q 245 594 240 594 l 240 -2 l 39 -2 l 39 674 l 353 674 q 359 675 366 675 q 374 675 378 675 q 474 675 546 635 q 643 581 643 473 z"},"T":{"x_min":0,"x_max":578,"ha":578,"o":"m 562 588 l 373 588 l 373 0 l 192 -4 l 192 588 l 11 588 l 11 672 l 562 672 z"},"P":{"x_min":0,"x_max":618,"ha":618,"o":"m 548 339 q 510 299 445 284 q 394 272 317 272 q 298 272 279 272 q 260 272 241 273 q 234 273 230 273 l 230 0 l 40 0 l 40 674 q 83 674 124 674 q 166 674 207 675 q 331 675 396 668 q 460 662 498 640 q 545 613 573 567 q 601 521 601 468 q 601 433 588 401 q 576 369 548 339 z m 408 476 q 408 528 370 558 q 331 588 279 588 q 256 588 230 580 l 230 357 q 259 349 283 349 q 339 349 374 382 q 408 415 408 476 z"},"t":{"x_min":0,"x_max":422,"ha":422,"o":"m 412 395 l 286 395 l 286 0 l 130 0 l 130 393 l 8 393 l 8 465 l 412 465 z"},"M":{"x_min":0,"x_max":756,"ha":756,"o":"m 708 0 l 528 0 l 528 433 l 335 -4 l 133 433 l 133 0 l 40 0 l 40 672 l 234 672 l 381 319 l 528 672 l 708 672 z"},"g":{"x_min":0,"x_max":537,"ha":537,"o":"m 508 -206 l 370 -207 l 366 29 q 335 8 305 0 q 275 -8 235 -8 q 145 -8 83 62 q 21 132 21 227 q 21 330 88 402 q 156 475 261 475 q 340 475 388 434 q 407 418 448 357 l 392 334 q 359 391 338 406 q 318 421 287 421 q 236 421 206 364 q 177 306 177 229 q 177 153 204 103 q 235 45 289 45 q 328 45 349 83 q 374 128 374 233 l 508 231 z"},"j":{"x_min":0,"x_max":223,"ha":223,"o":"m 172 611 q 172 586 155 569 q 138 552 112 552 q 88 552 70 569 q 52 586 52 611 q 52 636 70 654 q 87 671 112 671 q 137 671 154 654 q 172 636 172 611 z m 180 445 l 178 13 q 178 -4 178 -12 q 178 -29 176 -39 q 173 -49 163 -67 q 143 -101 89 -115 q 50 -125 -5 -125 q -21 -125 -34 -124 q -48 -124 -60 -124 l -56 -74 q -46 -75 -38 -76 q -30 -78 -19 -78 q 21 -78 40 -46 q 44 -40 46 -29 q 48 -18 48 -9 q 47 11 47 23 l 47 445 z"},"i":{"x_min":0,"x_max":206,"ha":206,"o":"m 176 623 q 180 594 162 570 q 144 546 119 546 q 85 546 60 564 q 36 581 36 611 q 36 640 57 660 q 78 680 107 680 q 133 680 152 664 q 172 649 176 623 z m 171 0 l 34 0 l 34 432 l 171 432 z"},"y":{"x_min":0,"x_max":460,"ha":460,"o":"m 461 461 l 139 -279 l 58 -281 l 194 38 l 1 463 l 169 465 l 284 236 l 380 462 z"},"@":{"x_min":0,"x_max":612,"ha":612,"o":"m 592 324 q 592 272 568 245 q 530 202 431 202 q 419 200 408 199 q 397 198 385 198 q 355 198 339 210 q 337 214 336 215 q 333 220 332 223 q 313 200 285 200 q 236 200 210 230 q 183 261 183 313 q 183 370 202 400 q 225 437 277 437 q 296 437 304 436 q 312 434 327 428 l 327 435 l 392 435 l 392 254 q 392 238 402 229 q 405 229 407 229 q 413 228 420 228 q 428 228 431 229 q 494 229 518 259 q 535 280 535 324 q 535 424 469 492 q 403 560 306 560 q 208 560 142 492 q 75 425 75 324 q 75 222 142 154 q 208 87 306 87 q 319 87 334 88 q 348 90 364 94 l 376 47 q 341 39 306 39 q 186 39 102 120 q 17 201 17 324 q 17 444 102 525 q 187 606 306 606 q 424 606 508 526 q 592 445 592 324 z m 326 317 q 326 358 320 379 q 310 413 284 410 q 259 410 252 385 q 246 360 246 319 q 246 274 251 256 q 260 223 288 223 q 310 223 318 251 q 326 279 326 317 z"},".":{"x_min":0,"x_max":155,"ha":155,"o":"m 137 59 q 137 34 119 16 q 101 -2 76 -2 q 52 -2 34 16 q 16 34 16 59 q 16 83 34 101 q 52 119 76 119 q 101 119 119 102 q 137 85 137 59 z"},"p":{"x_min":0,"x_max":541,"ha":541,"o":"m 519 231 q 519 106 422 39 q 346 -14 248 -14 q 211 -14 190 -5 l 190 -219 l 40 -224 l 40 462 l 296 462 q 385 462 450 399 q 519 332 519 231 z m 355 235 q 355 306 328 351 q 294 407 226 407 q 218 407 207 406 q 196 404 190 403 l 190 50 q 196 49 201 49 q 207 49 213 49 q 280 49 318 101 q 355 153 355 235 z"},"X":{"x_min":0,"x_max":584,"ha":584,"o":"m 576 0 l 383 0 l 249 227 l 106 0 l 13 0 l 202 307 l 5 672 l 202 672 l 316 479 l 434 672 l 530 672 l 354 399 z"},"*":{"x_min":0,"x_max":239,"ha":239,"o":"m 210 542 l 189 517 l 132 546 l 143 479 l 97 479 l 98 552 l 46 517 l 29 550 l 81 577 l 28 603 l 53 639 l 99 605 l 97 668 l 143 668 l 134 606 l 186 641 l 208 608 l 158 580 z"},"Y":{"x_min":0,"x_max":612,"ha":612,"o":"m 605 676 l 407 349 l 407 0 l 210 0 l 210 319 l 4 676 l 214 676 l 361 433 l 500 676 z"},"c":{"x_min":0,"x_max":485,"ha":485,"o":"m 471 113 q 427 70 383 28 q 332 -5 276 -5 q 267 -5 262 -5 q 256 -4 253 -4 q 147 7 85 73 q 23 139 23 232 q 23 251 26 269 q 38 362 108 418 q 177 475 278 475 q 342 475 384 449 q 421 426 458 374 l 400 340 q 381 377 365 395 q 343 420 327 422 q 311 425 300 425 q 247 425 216 368 q 186 310 186 232 q 186 161 210 108 q 235 55 280 48 q 285 47 296 47 q 335 47 370 76 q 400 100 426 146 z"},"!":{"x_min":0,"x_max":182,"ha":182,"o":"m 152 462 l 93 161 l 31 475 q 24 514 21 534 q 18 554 18 579 q 18 623 34 650 q 51 676 91 676 q 133 676 150 649 q 167 622 167 576 q 167 553 162 523 q 158 493 152 462 z m 159 62 q 153 32 136 12 q 118 -8 91 -8 q 61 -8 41 13 q 21 34 21 65 q 21 98 41 123 q 61 148 91 148 q 118 148 139 126 q 160 104 160 75 q 160 66 159 62 z"},"/":{"x_min":0,"x_max":396,"ha":396,"o":"m 387 671 l 54 -5 l 9 -5 l 341 676 z"},"[":{"x_min":0,"x_max":302,"ha":302,"o":"m 279 1 q 257 -1 228 -3 q 199 -5 176 -5 q 136 -5 110 0 q 83 4 66 16 q 48 28 44 44 q 39 59 39 83 q 39 103 39 113 l 39 555 q 39 576 39 586 q 39 609 44 624 q 49 640 65 652 q 81 663 112 668 q 142 673 177 673 q 199 673 228 671 q 257 669 279 667 l 279 613 q 272 614 260 614 q 248 614 242 614 q 224 614 212 614 q 201 614 190 613 q 169 596 169 563 l 169 105 q 169 72 190 55 q 203 55 216 54 q 230 54 250 54 q 273 54 279 55 z"},"6":{"x_min":0,"x_max":541,"ha":541,"o":"m 467 358 q 493 333 506 298 q 520 264 520 228 q 520 143 456 70 q 393 -2 300 -11 q 291 -11 281 -12 q 271 -13 265 -13 q 155 -13 88 51 q 25 111 25 198 q 25 236 38 271 l 186 669 l 371 672 l 274 402 q 289 402 304 402 q 319 402 334 403 q 380 403 409 395 q 438 387 467 358 z m 336 197 q 336 243 315 286 q 294 329 266 329 q 232 329 215 287 q 202 254 202 203 q 202 119 222 85 q 239 56 273 56 q 302 56 317 84 q 336 119 336 197 z"},"r":{"x_min":0,"x_max":518,"ha":518,"o":"m 518 1 l 334 1 l 212 240 q 243 233 280 266 q 317 299 317 337 q 317 346 316 350 q 306 395 270 412 q 244 424 193 424 l 193 1 l 36 1 l 36 476 l 265 476 q 349 476 399 451 q 469 416 469 338 q 469 275 412 236 q 393 224 355 210 z"},"2":{"x_min":0,"x_max":536,"ha":536,"o":"m 516 0 l 28 0 l 28 76 l 306 412 q 339 453 339 505 q 339 565 293 584 q 260 597 230 597 q 182 597 153 562 q 124 527 124 478 q 124 467 125 462 l 32 462 q 42 562 93 615 q 152 676 264 676 q 366 676 425 625 q 477 580 503 487 q 507 472 507 454 q 507 379 419 266 q 343 177 268 88 l 516 88 z"},"{":{"x_min":0,"x_max":264,"ha":264,"o":"m 248 3 q 224 1 198 -2 q 171 -4 158 -4 q 132 -4 114 0 q 95 5 78 16 q 61 28 56 44 q 52 59 52 83 q 52 103 52 113 l 52 298 l 12 337 l 52 378 l 52 555 q 52 576 52 586 q 52 609 57 624 q 62 640 79 652 q 96 664 118 670 q 139 675 169 675 q 184 675 206 673 q 228 671 248 669 l 248 615 q 243 616 233 616 q 221 616 212 615 q 209 615 203 613 q 182 596 182 563 l 182 378 l 142 337 l 182 298 l 182 105 q 182 72 203 55 q 213 55 218 55 q 239 55 248 57 z"},"9":{"x_min":0,"x_max":509,"ha":509,"o":"m 465 342 l 297 -6 l 106 -4 l 239 269 q 164 269 136 275 q 94 284 65 315 q 41 341 29 374 q 17 408 17 444 q 17 531 75 594 q 139 664 238 664 q 362 664 429 598 q 489 539 489 449 q 489 393 465 342 z m 307 468 q 307 543 292 572 q 278 602 252 602 q 224 602 208 574 q 189 540 189 464 q 189 407 195 387 q 207 347 246 347 q 280 347 295 387 q 307 419 307 468 z"}," ":{"x_min":0,"x_max":371,"ha":371,"o":""},"I":{"x_min":0,"x_max":279,"ha":279,"o":"m 241 0 l 39 0 l 39 672 l 241 672 z"},"H":{"x_min":0,"x_max":670,"ha":670,"o":"m 627 -2 l 434 0 l 434 298 l 236 298 l 236 0 l 39 0 l 39 672 l 236 672 l 236 382 l 438 382 l 438 676 l 627 676 z"},"4":{"x_min":0,"x_max":568,"ha":568,"o":"m 553 147 l 482 147 l 482 -4 l 306 0 l 306 143 l 11 143 l 11 218 l 306 672 l 482 672 l 482 227 l 553 227 z m 306 231 l 306 504 l 116 231 z"},"D":{"x_min":0,"x_max":736,"ha":736,"o":"m 708 274 q 675 144 606 86 q 538 29 399 11 q 291 -3 40 -3 l 40 674 q 353 674 466 649 q 517 638 571 597 q 650 540 686 469 q 717 409 717 343 q 717 321 716 310 q 714 298 708 274 z m 507 313 q 507 323 508 334 q 509 346 509 352 q 509 475 422 540 q 346 597 225 597 l 227 70 q 359 70 404 95 q 490 143 507 313 z"},"^":{"x_min":0,"x_max":252,"ha":252,"o":"m 231 427 l 196 427 l 153 480 l 95 427 l 20 427 l 79 488 q 115 530 135 530 q 149 530 165 509 q 181 488 189 477 z"},"0":{"x_min":0,"x_max":619,"ha":619,"o":"m 597 416 q 598 407 598 399 q 599 391 599 379 q 599 232 505 118 q 408 0 278 0 q 268 0 260 0 q 252 1 227 5 q 126 25 70 114 q 18 196 18 310 q 18 339 23 376 q 42 499 132 586 q 223 672 335 672 q 350 672 358 671 q 457 662 522 590 q 588 519 597 416 z m 408 343 q 408 458 396 513 q 376 606 319 606 q 308 606 303 605 q 265 598 241 526 q 217 453 217 373 q 217 225 224 183 q 241 81 303 81 q 354 81 383 170 q 408 246 408 343 z"},"F":{"x_min":0,"x_max":505,"ha":505,"o":"m 493 584 l 241 584 l 241 378 l 472 378 l 472 290 l 237 290 l 237 0 l 39 0 l 39 672 l 493 672 z"},"`":{"x_min":0,"x_max":343,"ha":343,"o":"m 273 701 l 156 722 q 121 728 92 746 q 59 767 59 791 q 59 798 62 806 q 70 830 97 830 q 120 830 148 814 q 177 798 199 776 z"},"k":{"x_min":0,"x_max":434,"ha":434,"o":"m 434 0 l 294 0 l 192 189 l 358 450 l 418 450 l 298 261 z m 181 0 l 41 0 l 41 676 l 181 676 z"},"u":{"x_min":0,"x_max":454,"ha":454,"o":"m 421 161 q 421 88 364 38 q 308 -11 233 -11 q 130 -11 77 64 q 37 120 37 191 l 37 465 l 189 465 q 189 337 189 290 q 189 244 189 199 q 189 180 189 171 q 189 122 201 103 q 220 73 276 73 q 312 73 328 105 q 340 130 340 169 l 340 465 l 421 465 z"},"]":{"x_min":0,"x_max":323,"ha":323,"o":"m 284 115 q 284 94 284 84 q 284 61 279 46 q 274 30 258 18 q 242 7 212 2 q 181 -3 146 -3 q 124 -3 95 -1 q 66 1 44 3 l 44 57 q 51 56 63 56 q 75 56 81 56 q 98 56 110 56 q 122 56 133 57 q 154 74 154 107 l 154 565 q 154 598 133 615 q 120 615 106 615 q 93 615 73 616 q 50 616 44 615 l 44 669 q 66 671 95 673 q 124 675 147 675 q 187 675 214 670 q 240 666 258 654 q 275 642 280 626 q 284 611 284 587 q 284 567 284 557 z"},"U":{"x_min":0,"x_max":618,"ha":618,"o":"m 578 182 q 578 129 516 69 q 436 -8 313 -8 q 205 -8 122 60 q 40 127 40 218 l 40 672 l 225 672 l 225 223 q 225 165 266 122 q 308 80 364 80 q 419 80 450 126 q 481 171 481 235 l 481 672 l 578 672 z"},"o":{"x_min":0,"x_max":527,"ha":527,"o":"m 506 255 q 506 152 443 78 q 377 0 279 0 q 176 0 101 63 q 22 129 22 227 q 22 331 89 402 q 156 474 263 474 q 359 474 432 410 q 506 345 506 255 z m 351 235 q 351 319 339 360 q 320 424 267 424 q 216 424 200 361 q 191 326 191 239 q 191 154 202 115 q 221 50 275 50 q 309 50 328 88 q 351 134 351 235 z"},"N":{"x_min":0,"x_max":638,"ha":638,"o":"m 591 -2 l 469 0 l 141 500 l 141 -2 l 40 0 l 40 672 l 263 672 l 490 324 l 490 672 l 591 672 z"},"G":{"x_min":0,"x_max":698,"ha":698,"o":"m 675 118 q 603 57 563 36 q 487 -4 387 -4 q 234 -4 128 87 q 21 178 21 319 q 21 462 119 565 q 217 668 357 668 q 542 668 643 521 l 555 467 q 517 554 476 579 q 445 598 374 598 q 297 598 251 517 q 209 443 209 337 q 209 231 252 157 q 299 76 382 76 q 392 75 397 75 q 431 75 460 89 q 478 98 517 126 l 517 294 l 675 294 z"},"q":{"x_min":0,"x_max":559,"ha":559,"o":"m 540 239 q 540 140 490 76 q 441 12 351 -8 l 351 -113 q 347 -114 329 -114 q 311 -114 299 -114 q 288 -114 283 -114 q 273 -114 268 -114 q 260 -114 256 -114 q 238 -114 226 -114 q 214 -114 204 -113 l 204 -4 q 123 17 75 72 q 24 130 24 209 q 24 323 96 397 q 168 471 275 471 q 378 471 459 400 q 540 329 540 239 z m 363 227 q 363 314 352 352 q 333 416 279 416 q 219 416 208 324 q 204 292 204 231 q 204 140 214 104 q 232 38 288 38 q 331 38 350 103 q 363 149 363 227 z"},"d":{"x_min":0,"x_max":483,"ha":483,"o":"m 443 -8 l 222 -8 q 143 -8 83 54 q 23 116 23 206 q 23 315 109 375 q 177 423 263 423 q 294 423 313 415 l 313 669 l 443 669 z m 313 38 l 313 366 q 305 367 291 367 q 231 367 200 320 q 168 273 168 191 q 168 124 192 85 q 222 36 288 36 q 294 36 300 36 q 309 38 313 38 z"},"1":{"x_min":0,"x_max":350,"ha":350,"o":"m 308 0 l 132 0 l 132 588 l -2 563 l -2 618 l 308 676 z"},"5":{"x_min":0,"x_max":492,"ha":492,"o":"m 458 404 q 470 384 470 359 q 470 330 449 294 q 441 281 423 254 l 251 0 l 36 0 q 101 92 175 202 q 185 218 200 239 q 223 273 234 291 q 269 349 269 371 q 269 382 258 385 q 248 388 223 389 q 198 390 192 390 q 141 390 105 389 q 69 388 38 387 l 38 672 l 454 672 l 454 592 l 226 592 l 227 449 l 307 449 q 372 449 406 440 q 441 432 458 404 z"}}}
